<?xml version="1.0" standalone="no"?>
<!DOCTYPE svg PUBLIC "-//W3C//DTD SVG 20010904//EN"
 "http://www.w3.org/TR/2001/REC-SVG-20010904/DTD/svg10.dtd">
<svg version="1.0" xmlns="http://www.w3.org/2000/svg"
 width="512.000000pt" height="512.000000pt" viewBox="0 0 512.000000 512.000000"
 preserveAspectRatio="xMidYMid meet">
<metadata>
Created by potrace 1.14, written by Peter Selinger 2001-2017
</metadata>
<g transform="translate(0.000000,512.000000) scale(0.100000,-0.100000)"
fill="#000000" stroke="none">
<path d="M2345 5108 c-288 -36 -543 -94 -690 -157 -11 -5 -45 -19 -75 -31 -55
-22 -208 -97 -285 -140 -71 -39 -258 -167 -345 -237 -108 -86 -286 -264 -374
-373 -289 -362 -479 -790 -540 -1221 -49 -345 -49 -452 0 -789 46 -310 162
-632 329 -915 102 -172 208 -308 370 -474 418 -429 924 -677 1546 -760 108
-14 467 -14 562 0 448 66 719 159 1057 363 335 202 692 567 881 902 230 409
339 818 339 1279 0 702 -270 1341 -771 1830 -258 252 -495 408 -822 542 -237
97 -415 140 -758 182 -99 13 -323 12 -424 -1z m536 -93 c268 -38 451 -89 685
-191 196 -86 433 -233 584 -361 94 -80 292 -284 361 -373 267 -343 428 -713
505 -1160 26 -149 26 -589 1 -739 -67 -389 -185 -696 -383 -996 -346 -525
-880 -902 -1484 -1049 -204 -49 -306 -60 -585 -60 -287 -1 -356 6 -581 60
-744 176 -1381 708 -1688 1408 -148 340 -206 622 -206 1005 0 286 27 474 104
726 166 547 533 1031 1022 1351 312 204 639 323 1049 383 104 15 500 13 616
-4z"/>
<path d="M2350 4934 c-421 -47 -771 -170 -1099 -388 -69 -46 -142 -97 -161
-113 -145 -120 -279 -251 -365 -358 -22 -28 -46 -56 -53 -64 -7 -7 -51 -71
-97 -141 -196 -296 -321 -623 -376 -985 -19 -122 -19 -553 0 -655 26 -147 53
-276 67 -320 8 -25 19 -61 25 -80 52 -171 171 -418 278 -580 342 -516 854
-876 1441 -1013 278 -66 535 -82 800 -52 214 24 352 54 539 119 493 171 931
515 1215 955 360 556 472 1213 317 1864 -50 211 -158 478 -258 635 -18 29 -33
55 -33 58 0 3 -28 44 -62 92 -242 342 -536 599 -888 776 -114 57 -259 118
-350 145 -19 6 -55 17 -80 25 -41 13 -123 30 -315 66 -59 11 -475 22 -545 14z
m485 -104 c191 -27 215 -40 215 -120 0 -75 -18 -152 -42 -177 -17 -18 -32 -23
-67 -22 -57 0 -268 32 -277 42 -4 4 1 62 10 129 24 172 23 170 55 164 14 -3
62 -10 106 -16z m-382 -124 c48 -71 87 -134 87 -142 0 -10 -12 -14 -39 -14
-31 0 -43 6 -58 26 l-19 26 -90 -14 c-85 -12 -90 -14 -104 -45 -15 -32 -35
-43 -79 -43 -18 0 -22 4 -16 18 4 9 27 78 51 152 25 74 49 139 53 143 9 9 98
26 116 23 6 -1 49 -60 98 -130z m928 -12 c68 -25 129 -50 135 -55 13 -10 8
-46 -8 -55 -5 -3 -54 11 -110 32 -83 31 -101 35 -109 23 -18 -28 -7 -38 86
-74 96 -37 100 -40 89 -69 -8 -22 -17 -21 -116 18 -73 29 -89 32 -99 20 -14
-17 -5 -43 18 -50 55 -18 159 -59 166 -64 12 -11 -3 -60 -19 -60 -8 0 -44 12
-81 26 -38 14 -93 35 -123 47 -30 11 -59 24 -64 28 -6 5 8 53 32 116 22 59 46
120 51 136 6 15 14 27 19 27 4 0 64 -21 133 -46z m-1464 14 c31 -29 29 -40 -9
-57 -24 -11 -33 -11 -36 -3 -6 20 -44 13 -112 -21 -44 -22 -66 -39 -68 -52 -4
-28 36 -115 55 -122 20 -8 107 22 146 49 54 39 19 65 -44 33 -34 -18 -49 -13
-49 16 0 14 16 26 58 45 90 40 101 38 124 -23 17 -45 18 -55 6 -79 -25 -51
-236 -137 -283 -116 -27 13 -65 81 -89 161 -20 70 -11 86 76 129 133 66 187
76 225 40z m1827 -197 c4 -6 -122 -241 -140 -260 -6 -7 -56 23 -61 36 -4 11
100 211 130 250 7 10 15 9 37 -2 16 -8 31 -19 34 -24z m-2220 -98 l69 -126
-24 -18 c-36 -28 -53 -23 -77 24 -12 23 -42 80 -68 126 l-47 85 23 18 c41 33
52 24 124 -109z m2454 -55 c133 -124 152 -145 152 -171 0 -33 -68 -107 -98
-107 -17 0 -22 -6 -22 -25 0 -14 -13 -39 -28 -56 l-28 -32 -27 27 c-24 24 -28
56 -6 56 5 0 9 11 9 24 0 17 -17 39 -57 75 l-58 50 -25 -24 c-15 -14 -29 -25
-32 -25 -11 0 -50 40 -46 48 8 23 184 212 196 212 8 0 39 -24 70 -52z m-2725
17 c32 -23 67 -78 67 -102 0 -15 6 -23 17 -23 9 0 32 -14 50 -32 l33 -32 -22
-23 c-26 -28 -40 -29 -63 -3 -10 11 -23 20 -28 20 -5 0 -35 -21 -66 -47 -31
-26 -58 -48 -61 -50 -2 -2 4 -19 15 -38 18 -34 18 -36 0 -55 -10 -12 -24 -19
-30 -18 -7 2 -54 52 -106 112 l-93 109 44 39 c105 92 192 158 208 158 9 0 25
-7 35 -15z m1487 -25 c331 -39 579 -130 840 -308 599 -408 891 -1127 750
-1842 -122 -620 -585 -1146 -1187 -1349 -455 -154 -945 -123 -1374 89 -455
224 -801 637 -938 1121 -107 380 -92 760 46 1128 181 485 569 873 1054 1054
260 97 558 137 809 107z m1638 -407 c56 -77 92 -143 92 -171 0 -19 -29 -49
-93 -96 -56 -41 -102 -58 -130 -47 -25 10 -109 117 -146 186 -26 50 -27 75 0
109 21 27 114 91 153 106 33 12 69 -13 124 -87z m-3479 61 c17 -14 31 -32 31
-40 0 -9 11 -14 34 -14 39 0 96 -46 96 -77 0 -19 -145 -238 -172 -261 -12 -9
-37 4 -129 69 -63 44 -115 84 -117 89 -5 13 147 228 172 246 29 20 50 17 85
-12z m3830 -1335 c17 -6 36 -19 41 -29 6 -10 10 -74 10 -143 0 -115 -1 -125
-22 -144 -33 -29 -61 -33 -171 -26 l-98 6 3 36 3 36 85 3 c136 4 130 -1 130
91 0 92 2 91 -105 91 -97 0 -105 4 -105 51 l0 39 99 0 c54 0 112 -5 130 -11z
m-4095 -50 c3 -17 6 -84 6 -148 0 -86 -4 -122 -15 -137 -19 -28 -72 -38 -99
-20 -19 12 -25 11 -45 -5 -34 -28 -85 -25 -109 6 -17 21 -21 48 -27 169 -4 79
-4 149 -1 155 5 7 56 11 145 11 l139 0 6 -31z m48 -517 c35 -150 35 -177 3
-198 -31 -20 -97 -29 -120 -17 -13 8 -23 4 -41 -14 -31 -31 -79 -31 -88 0 -10
38 -7 46 25 62 29 15 30 19 24 58 -3 23 -11 57 -16 75 -10 29 -14 32 -49 32
-35 0 -39 3 -45 31 -4 17 -3 35 1 39 15 15 258 67 269 58 5 -4 22 -61 37 -126z
m3890 99 c-2 -19 -12 -41 -23 -50 -24 -19 -55 -139 -40 -154 19 -19 38 2 51
59 7 33 22 82 32 111 23 63 55 76 116 46 32 -16 37 -23 40 -57 3 -39 -30 -197
-51 -243 -11 -24 -42 -37 -74 -31 -23 5 -19 55 7 83 20 21 54 150 44 166 -16
27 -33 2 -58 -88 -15 -54 -34 -108 -42 -120 -17 -27 -61 -30 -104 -8 -51 26
-53 43 -25 167 33 142 44 160 93 156 36 -3 37 -4 34 -37z m-138 -344 c17 -13
17 -15 -3 -57 -27 -55 -26 -67 1 -76 38 -12 168 -74 168 -79 0 -15 -32 -65
-41 -65 -6 0 -44 16 -86 35 -100 46 -109 45 -133 -10 -11 -25 -24 -45 -30 -45
-17 0 -50 20 -50 30 0 5 25 61 55 125 30 65 55 120 55 124 0 11 23 31 35 31 6
0 19 -6 29 -13z m-3733 -123 c52 -3 100 -9 105 -12 11 -8 44 -78 44 -93 0 -15
-180 -244 -192 -244 -6 0 -17 17 -25 38 -14 35 -14 39 2 57 17 19 17 23 -18
97 -27 61 -40 79 -58 81 -30 5 -49 20 -60 50 -13 34 -6 39 53 36 29 -2 96 -6
149 -10z m3584 -259 c30 -19 80 -51 111 -70 l56 -36 -21 -32 c-11 -18 -24 -32
-28 -32 -16 0 -233 140 -233 150 0 18 30 55 45 55 8 0 39 -16 70 -35z m-3232
-134 c53 -66 97 -124 97 -129 0 -5 -11 -17 -25 -26 -23 -15 -31 -15 -122 10
-54 14 -101 28 -105 31 -5 2 -13 1 -18 -2 -7 -4 7 -28 32 -58 76 -91 73 -85
52 -108 -10 -11 -23 -18 -30 -17 -10 3 -107 116 -178 211 -28 36 -28 38 -11
57 23 26 38 25 147 -5 50 -15 96 -25 104 -23 8 2 -8 28 -42 70 l-54 67 22 21
c12 11 25 20 28 20 4 0 50 -54 103 -119z m3161 -36 c110 -97 112 -113 31 -208
-72 -84 -98 -94 -156 -60 -35 21 -36 33 -5 62 20 19 28 21 45 11 18 -9 26 -7
51 19 17 16 30 38 30 49 0 12 -27 41 -70 77 -38 31 -70 62 -70 68 0 12 40 57
51 57 3 0 45 -34 93 -75z m-2949 -184 l19 -22 -94 -94 c-52 -52 -102 -95 -111
-95 -19 0 -53 34 -48 49 2 5 44 52 93 105 95 101 99 103 141 57z m116 -98 c16
-10 29 -22 29 -28 0 -6 -25 -45 -55 -87 -30 -42 -55 -81 -55 -86 0 -5 29 -29
64 -52 84 -54 89 -61 70 -89 -9 -12 -21 -21 -28 -19 -25 7 -215 144 -216 156
0 11 150 222 158 222 2 0 17 -8 33 -17z m2629 -59 c0 -7 -17 -26 -37 -43 -34
-28 -38 -29 -55 -14 -27 24 -21 45 19 76 34 25 37 26 55 10 10 -9 18 -22 18
-29z m-210 -55 c33 -50 60 -101 60 -114 0 -36 -34 -69 -134 -130 -131 -79
-142 -77 -230 48 l-64 92 30 27 c17 15 35 25 40 22 4 -3 31 -39 58 -80 38 -56
56 -74 74 -74 23 0 127 67 133 86 2 6 -19 45 -47 85 -27 41 -50 79 -50 86 0
11 45 42 62 43 4 0 34 -41 68 -91z m-2110 -76 c14 -9 26 -17 28 -18 3 -3 -97
-192 -118 -225 -15 -22 -17 -22 -48 -6 -18 9 -32 21 -32 28 0 6 22 52 49 102
26 50 53 101 60 114 14 26 28 28 61 5z m1683 -75 c29 -63 87 -208 87 -219 0
-5 -16 -17 -35 -25 -41 -17 -45 -17 -45 -4 0 5 -11 33 -24 62 -13 29 -36 84
-50 121 l-26 68 33 14 c43 19 43 19 60 -17z m-1390 -41 c21 -8 42 -18 46 -23
8 -8 24 -86 51 -252 4 -23 3 -45 -2 -48 -4 -3 -24 0 -44 6 -26 9 -36 19 -41
41 -5 26 -13 31 -89 56 -81 26 -84 26 -104 8 -18 -16 -25 -17 -60 -6 -22 6
-40 16 -40 20 0 14 218 211 232 211 7 0 30 -6 51 -13z m1236 -74 c30 -100 36
-145 22 -171 -19 -36 -180 -83 -229 -68 -22 7 -57 70 -47 85 3 5 19 13 37 16
23 6 33 3 40 -9 17 -31 118 -11 118 23 0 9 -11 52 -25 96 -14 44 -25 81 -25
83 0 6 46 21 65 21 17 1 24 -13 44 -76z m-903 -3 c30 0 38 -7 93 -87 85 -124
85 -124 92 -88 4 17 7 58 8 92 1 67 5 71 58 65 l35 -4 -6 -92 c-4 -50 -10
-112 -13 -138 l-6 -48 -41 1 c-84 3 -92 8 -166 113 -42 60 -71 94 -74 85 -3
-8 -9 -50 -13 -94 l-8 -80 -40 3 c-22 2 -41 5 -43 6 -4 4 18 249 23 265 4 9
15 12 36 7 18 -3 46 -6 65 -6z"/>
<path d="M2765 4718 c-4 -23 -7 -59 -8 -78 l-2 -34 84 -12 c46 -7 89 -10 96
-8 20 8 35 51 35 99 0 43 -1 45 -37 54 -21 5 -66 12 -100 16 l-62 7 -6 -44z"/>
<path d="M2303 4758 c-8 -11 -43 -103 -43 -115 0 -6 88 -3 104 3 24 9 20 30
-14 80 -35 49 -34 49 -47 32z"/>
<path d="M3886 4281 c-22 -24 -15 -37 51 -93 44 -38 59 -45 74 -38 39 21 33
47 -23 100 -58 54 -76 60 -102 31z"/>
<path d="M1149 4254 c-30 -25 -58 -50 -63 -54 -11 -11 20 -60 38 -60 21 0 126
92 126 111 0 14 -29 49 -41 49 -3 0 -30 -21 -60 -46z"/>
<path d="M2390 4274 c-14 -2 -59 -9 -100 -15 -237 -36 -508 -147 -720 -297
-122 -86 -316 -280 -402 -402 -343 -486 -414 -1112 -188 -1655 77 -183 150
-302 289 -469 175 -209 447 -395 724 -495 288 -104 628 -126 935 -61 142 30
264 74 417 150 756 374 1125 1267 858 2070 -196 586 -676 1016 -1283 1146 -94
21 -150 26 -310 29 -107 2 -206 2 -220 -1z m450 -100 c273 -46 506 -147 724
-313 151 -115 313 -295 409 -456 28 -47 127 -254 127 -265 0 -6 4 -18 10 -28
29 -53 74 -265 91 -431 11 -107 11 -143 -4 -270 -43 -380 -169 -666 -415 -948
-96 -109 -286 -260 -412 -327 -30 -16 -68 -37 -85 -46 -36 -20 -187 -79 -230
-90 -16 -5 -55 -15 -86 -24 -238 -65 -567 -61 -834 9 -69 18 -236 81 -280 105
-16 9 -55 29 -85 45 -112 59 -250 164 -361 274 -359 358 -530 876 -458 1386
54 384 260 760 547 1001 46 38 89 74 96 80 7 7 44 32 82 56 244 156 508 244
784 262 94 6 291 -4 380 -20z"/>
<path d="M1535 3717 c-3 -6 -4 -172 -3 -367 l3 -355 73 -3 72 -3 0 -434 0
-434 -72 -3 -73 -3 0 -365 0 -365 785 -3 786 -2 139 116 c220 184 329 276 343
293 9 11 12 86 12 296 l0 282 -47 44 c-27 24 -74 66 -106 93 l-58 50 28 25
c16 14 58 50 93 80 36 30 71 61 78 70 9 11 12 86 12 299 l0 284 -28 26 c-15
15 -41 38 -57 52 -17 14 -78 66 -136 115 -197 168 -220 188 -244 206 -22 18
-60 19 -809 19 -622 0 -788 -3 -791 -13z m1728 -303 l207 -176 0 -248 0 -249
-100 -86 c-55 -48 -100 -92 -99 -99 0 -6 45 -49 100 -95 l99 -83 0 -249 0
-248 -207 -175 -208 -175 -690 2 -690 2 -3 237 -2 237 67 3 68 3 0 530 0 530
-67 3 -68 3 0 248 c0 136 3 251 7 254 3 4 315 7 693 7 l687 0 206 -176z"/>
<path d="M1740 3330 l0 -190 65 0 65 0 -2 -592 -3 -593 -62 -3 -63 -3 0 -174
0 -175 649 0 649 0 186 156 186 156 0 213 c0 246 15 210 -137 340 -57 48 -103
91 -103 95 0 4 54 54 120 110 l120 101 0 218 0 217 -182 156 -183 157 -652 0
-653 1 0 -190z m1130 -241 l70 -51 0 -101 c0 -56 -4 -107 -8 -113 -4 -6 -31
-29 -61 -52 l-53 -42 -227 2 -226 3 -3 190 c-1 104 0 195 2 202 4 10 55 13
221 13 l215 0 70 -51z m-5 -762 l70 -52 3 -100 3 -100 -58 -53 -58 -52 -230 2
-230 3 -3 180 c-1 99 0 190 3 203 5 22 6 22 218 22 l212 0 70 -53z"/>
<path d="M2434 3067 c-2 -7 -3 -71 -2 -143 l3 -129 169 -3 c183 -3 206 1 250
47 25 26 27 34 24 97 l-3 68 -50 38 -50 38 -168 0 c-129 0 -169 -3 -173 -13z
m362 -57 c42 -29 44 -33 44 -80 0 -42 -4 -52 -31 -74 -30 -26 -33 -26 -185
-26 l-154 0 0 105 0 105 141 0 c140 0 140 0 185 -30z"/>
<path d="M2432 2173 l3 -138 179 -3 178 -2 44 35 c43 36 44 37 44 99 0 67 -5
78 -62 119 -37 27 -37 27 -213 27 l-176 0 3 -137z m374 71 c30 -23 34 -32 34
-73 0 -38 -5 -52 -26 -72 -25 -23 -30 -24 -182 -24 l-157 0 -3 98 -3 97 151 0
c148 0 152 -1 186 -26z"/>
<path d="M4214 3920 c-23 -16 -44 -36 -47 -44 -6 -16 54 -122 83 -148 25 -21
50 -14 97 27 l38 33 -23 45 c-29 55 -80 117 -95 117 -7 -1 -31 -14 -53 -30z"/>
<path d="M786 3873 c-48 -65 -52 -89 -19 -100 16 -6 105 123 101 144 -7 37
-34 23 -82 -44z"/>
<path d="M903 3843 c-67 -87 -76 -103 -63 -118 7 -8 18 -15 25 -15 19 0 109
136 102 154 -10 26 -34 18 -64 -21z"/>
<path d="M415 2548 c-2 -7 -1 -47 3 -88 6 -60 10 -75 25 -78 15 -3 17 6 17 87
0 85 -1 91 -20 91 -11 0 -23 -6 -25 -12z"/>
<path d="M522 2478 c3 -75 5 -83 23 -83 18 0 20 7 20 80 0 76 -1 80 -23 83
-22 3 -23 2 -20 -80z"/>
<path d="M565 2133 c-31 -8 -33 -20 -15 -90 20 -73 30 -87 56 -81 15 3 19 12
18 48 -2 52 -21 131 -32 129 -4 -1 -16 -4 -27 -6z"/>
<path d="M668 1610 c9 -22 22 -40 28 -40 11 0 64 62 64 74 0 3 -24 6 -54 6
l-55 0 17 -40z"/>
<path d="M1911 606 c-31 -32 -32 -35 -15 -44 11 -5 31 -12 47 -16 25 -6 27 -4
27 28 0 38 -8 66 -19 66 -4 0 -22 -15 -40 -34z"/>
</g>
</svg>
